<?xml version="1.0" standalone="no"?>
<!DOCTYPE svg PUBLIC "-//W3C//DTD SVG 1.1//EN" "http://www.w3.org/Graphics/SVG/1.1/DTD/svg11.dtd" >
<svg xmlns="http://www.w3.org/2000/svg" xmlns:xlink="http://www.w3.org/1999/xlink" version="1.1">
<metadata>
Created by FontForge 20161003 at Mon Jun 25 18:38:12 2018
 By www-data
Copyright (c) 2016 by Stefan Gandl. All rights reserved.
</metadata>
<defs>
<font id="NBAkademieStd-Black" horiz-adv-x="1452" >
  <font-face 
    font-family="NB Akademie Std Black"
    font-weight="900"
    font-stretch="normal"
    units-per-em="2048"
    panose-1="2 11 10 0 5 0 0 2 0 4"
    ascent="1638"
    descent="-410"
    x-height="1036"
    cap-height="1442"
    bbox="-127 -448 2099 1867"
    underline-thickness="174"
    underline-position="-448"
    unicode-range="U+000D-FB02"
  />
<missing-glyph horiz-adv-x="748" 
d="M68 1365h544v-1365h-544v1365zM544 68v1229h-408v-1229h408z" />
    <glyph glyph-name=".notdef" horiz-adv-x="748" 
d="M68 1365h544v-1365h-544v1365zM544 68v1229h-408v-1229h408z" />
    <glyph glyph-name="glyph3" horiz-adv-x="55" 
 />
    <glyph glyph-name="glyph3" horiz-adv-x="55" 
 />
    <glyph glyph-name="uni000D" unicode="&#xd;" horiz-adv-x="55" 
 />
    <glyph glyph-name="space" unicode=" " horiz-adv-x="493" 
 />
    <glyph glyph-name="exclam" unicode="!" horiz-adv-x="667" 
d="M158 344h350v-344h-350v344zM158 1442h352v-406l-43 -587h-268l-41 587v406z" />
    <glyph glyph-name="quotedbl" unicode="&#x22;" horiz-adv-x="806" 
d="M88 1442h277v-316l-41 -313h-195l-41 313v316zM446 1442h281v-316l-41 -313h-199l-41 313v316z" />
    <glyph glyph-name="numbersign" unicode="#" horiz-adv-x="1267" 
d="M8 643h271q12 54 20 94t12 66h-237v209h274q12 72 39 219q14 74 23.5 127t14.5 86h246l-76 -432h129q6 37 15.5 91.5t23.5 128.5t23.5 127t14.5 85h248l-76 -432h233l2 -209h-274q-5 -21 -15 -75q-5 -27 -9 -48t-7 -37h240l2 -211h-277q-5 -31 -14 -83t-23 -127
t-23.5 -130t-16.5 -92h-246l76 430h-132q-13 -72 -31.5 -179t-43.5 -251h-246l74 430h-234v213zM655 643l31 160h-129l-29 -160h127z" />
    <glyph glyph-name="dollar" unicode="$" horiz-adv-x="1331" 
d="M436 551q0 -89 40 -165t118 -109v331q-71 13 -132 33q-60 19 -125 53q-63 33 -107 77q-43 43 -72 107q-28 62 -28 140q0 97 39 177t105 131q67 52 147 83q81 31 173 42v180h188v-182q86 -13 166 -48q78 -34 145 -90q66 -56 108 -138q43 -84 50 -182l-346 -57
q0 172 -123 225v-293q78 -11 144 -27q64 -16 135 -50q70 -33 116 -78q47 -46 77 -117q30 -72 30 -162q0 -183 -133 -306q-134 -124 -367 -143v-179h-188v181q-123 13 -219 60q-96 46 -156 117t-93 154q-32 82 -40 180zM470 1016q0 -35 32 -67q31 -31 92 -51v264
q-123 -32 -123 -144zM780 264q76 15 116 58q41 44 41 106q0 115 -156 150v-314h-1z" />
    <glyph glyph-name="percent" unicode="%" horiz-adv-x="1812" 
d="M96 1015q0 204 86 325q85 120 264 120q178 0 264 -120q86 -121 86 -325q0 -134 -34 -229q-35 -97 -115 -155t-202 -58q-91 0 -160 33q-68 33 -109 93q-40 60 -60 140q-20 82 -20 177v-1zM1235 1529l176 -100l-893 -1518l-178 100zM367 1015q0 -234 79 -234q78 0 78 234
q0 235 -78 235q-79 0 -79 -235zM957 419q0 97 20 179q20 80 60 140t110 93q69 33 161 33t161 -33q70 -33 110 -93t60 -140q10 -40 15 -84t5 -94q0 -97 -20 -177q-20 -78 -60 -138t-110 -93q-69 -33 -161 -33q-179 0 -265 119q-85 118 -85 323zM1231 419q0 -118 18 -175
t59 -57q42 0 60 57t18 175q0 122 -18 179t-60 57q-43 0 -59 -57q-17 -59 -17 -179h-1z" />
    <glyph glyph-name="ampersand" unicode="&#x26;" horiz-adv-x="1329" 
d="M40 417q0 240 227 387q-63 75 -91 135q-27 58 -27 142q0 116 59 204q59 87 155 131q97 44 211 44q94 0 178 -32q83 -32 137 -84q54 -53 84 -121q30 -69 30 -142q0 -125 -69 -209t-202 -157l129 -148q12 94 12 165l320 -57q-4 -54 -10.5 -104t-17.5 -96q-21 -92 -69 -189
l247 -287h-376l-60 68q-127 -88 -327 -88q-126 0 -231 35q-103 34 -171 95q-66 59 -103 140q-36 79 -36 171zM381 436q0 -89 60 -141q59 -52 140 -52t137 41l-256 301q-34 -22 -58 -63t-24 -85zM468 1097q0 -46 17 -82q16 -33 66 -91q135 57 135 155q0 54 -28 86
q-29 33 -85 33q-43 0 -74 -29q-30 -29 -30 -71z" />
    <glyph glyph-name="quotesingle" unicode="'" horiz-adv-x="446" 
d="M88 1442h277v-316l-39 -313h-197l-41 313v316z" />
    <glyph glyph-name="parenleft" unicode="(" horiz-adv-x="626" 
d="M53 520q0 233 76 479q77 249 189 443h256q-251 -436 -251 -922q0 -479 251 -915h-256q-57 100 -103.5 210t-84.5 232q-75 243 -75 473h-2z" />
    <glyph glyph-name="parenright" unicode=")" horiz-adv-x="626" 
d="M53 -394q252 436 252 915q0 484 -252 921h256q112 -194 189 -443q76 -246 76 -479q0 -230 -75 -473q-38 -122 -84.5 -232t-103.5 -210h-256z" />
    <glyph glyph-name="asterisk" unicode="*" horiz-adv-x="876" 
d="M129 1282l133 -43l107 -49l-13 121v131h84h84v-131l-12 -121l106 49l134 43l49 -158l-137 -43l-119 -26l88 -94l78 -105l-142 -96l-73 106l-56 90l-55 -90l-74 -106l-141 96l78 105l88 94l-119 26l-137 43z" />
    <glyph glyph-name="plus" unicode="+" horiz-adv-x="1353" 
d="M129 676h379v371h344v-371h379v-305h-379v-371h-344v371h-379v305z" />
    <glyph glyph-name="comma" unicode="," horiz-adv-x="540" 
d="M94 344h350v-344l-194 -344h-156l156 344h-156v344z" />
    <glyph glyph-name="hyphen" unicode="-" horiz-adv-x="878" 
d="M49 676h776v-305h-776v305z" />
    <glyph glyph-name="period" unicode="." horiz-adv-x="540" 
d="M94 344h350v-344h-350v344z" />
    <glyph glyph-name="slash" unicode="/" horiz-adv-x="784" 
d="M449 1442h290l-432 -1442h-305z" />
    <glyph glyph-name="zero" unicode="0" horiz-adv-x="1423" 
d="M114 717q0 162 35 297q34 133 105 234q70 100 188 156t271 56q155 0 269 -55q115 -56 186 -156q70 -101 105 -234q35 -135 35 -297q0 -130 -21 -241q-21 -109 -68 -204q-46 -91 -116 -157q-68 -64 -168 -100q-99 -36 -222 -36q-125 0 -225 36q-99 35 -169 101
q-69 64 -115 157q-47 95 -68 204q-21 111 -21 241zM466 716q0 -240 58 -347q58 -108 189 -108q127 0 184 108t57 347q0 241 -57 351t-184 110q-131 0 -189 -109t-58 -351v-1z" />
    <glyph glyph-name="one" unicode="1" horiz-adv-x="958" 
d="M92 1155l330 287h332v-1442h-346v1055l-316 -275v375z" />
    <glyph glyph-name="two" unicode="2" horiz-adv-x="1249" 
d="M95 214l516 518q21 20 36 35l25 25t22.5 24.5t28.5 34.5q31 39 45 77q14 39 14 76q0 71 -42 122t-128 51q-69 0 -115 -72q-46 -71 -40 -204l-346 62q0 123 42 221q42 97 114 156q73 60 160 89q88 30 186 30q225 0 376 -131q150 -131 150 -323q0 -74 -27 -149t-72 -138
q-43 -61 -84 -106q-20 -22 -40 -42t-42 -39q-25 -23 -58.5 -53.5t-76.5 -70.5t-76.5 -70.5t-58.5 -53.5h551v-283h-1063z" />
    <glyph glyph-name="three" unicode="3" horiz-adv-x="1282" 
d="M431 493q0 -119 57 -176t140 -57q76 0 129 44t53 117q0 75 -54 122q-55 47 -128 47h-184v280h184q64 0 111 42t47 106q0 65 -41 114q-41 48 -114 48q-74 0 -120 -54q-46 -53 -46 -145l-350 57q0 120 74 220t192 152q120 53 250 53q138 0 255 -60q116 -60 184 -162
q68 -103 68 -223q0 -83 -47 -162t-114 -119q81 -46 135 -134q54 -87 54 -181q0 -131 -72 -233t-192 -156t-266 -54q-158 0 -279 51q-120 50 -193 155q-72 103 -72 249z" />
    <glyph glyph-name="four" unicode="4" horiz-adv-x="1495" 
d="M92 522l733 920h334v-910h250v-282h-250v-250h-344v250h-723v272zM815 532v441l-350 -441h350z" />
    <glyph glyph-name="five" unicode="5" horiz-adv-x="1333" 
d="M434 454q0 -30 11 -63q10 -31 33 -64q22 -32 68 -52t104 -20q103 0 159 74t56 177q0 43 -13 83q-14 42 -39 78q-26 36 -68 59q-43 23 -94 23q-11 0 -21 -0.5t-19 -1.5q-19 -2 -34 -7q-8 -3 -15 -5.5t-13 -4.5q-14 -5 -23 -13q-12 -11 -18 -14q-6 -4 -16 -17
q-9 -12 -12 -15q-2 -2 -10 -15q-7 -11 -9 -13l-332 68l86 727h848v-283h-565l-27 -223q92 88 262 88q99 0 185 -34q88 -35 155 -99q68 -65 107 -162q39 -98 39 -216q0 -128 -46 -229q-47 -103 -126 -167q-80 -65 -181 -99q-103 -35 -216 -35q-118 0 -219 32q-99 32 -160 79
q-61 48 -103 106q-43 59 -59 110q-17 53 -17 95z" />
    <glyph glyph-name="six" unicode="6" horiz-adv-x="1347" 
d="M118 720q0 349 158 546t443 197q80 0 153 -19q77 -20 144 -58q70 -39 123 -106q55 -69 83 -154l-326 -59q-38 63 -79 87q-42 24 -99 24q-50 0 -90 -15q-41 -15 -67 -37q-27 -23 -48 -54q-22 -32 -33 -61q-6 -15 -10.5 -30.5t-8.5 -32.5q-8 -33 -9 -55q-1 -11 -1.5 -21.5
t-0.5 -20.5q104 131 306 131q82 0 153 -21t119 -54t86 -77q39 -45 59 -88q11 -23 19.5 -45t15.5 -45q13 -45 18 -77q2 -16 3.5 -30t1.5 -26q0 -149 -64 -270q-65 -122 -189 -195t-285 -73q-126 2 -225 43q-101 42 -165 111q-65 69 -108 165q-44 97 -62 200t-18 219zM482 500
q0 -95 58 -165t157 -70q98 0 157 71q58 70 58 165t-58 165t-157 70t-157 -70t-58 -165v-1z" />
    <glyph glyph-name="seven" unicode="7" horiz-adv-x="1153" 
d="M70 1442h1013v-268l-518 -1174h-360l520 1159h-655v283z" />
    <glyph glyph-name="eight" unicode="8" horiz-adv-x="1316" 
d="M114 420q0 102 53 185q52 82 137 135q-153 100 -153 293q0 122 69 221t184 153t252 54q139 0 255 -54q115 -54 183 -153q68 -100 68 -220q0 -91 -39 -166q-39 -74 -111 -124q188 -114 188 -323q0 -125 -73 -226q-74 -102 -198 -159q-125 -57 -273 -57q-149 0 -273 57
t-196 159t-72 227zM468 442q0 -81 54 -130q53 -49 132 -49q77 0 135 50q57 49 57 129q0 88 -56 138t-135 50q-76 0 -131 -50q-54 -50 -54 -138h-2zM494 1024q0 -65 48 -110t113 -45t115 45q49 45 49 110q0 62 -49 108t-115 46q-67 0 -114 -46q-48 -47 -48 -108h1z" />
    <glyph glyph-name="nine" unicode="9" horiz-adv-x="1347" 
d="M108 922q0 109 38 209q37 98 105 172t170 116t224 42q103 0 192 -33q88 -33 150 -90q61 -57 108 -129q46 -72 75 -156q28 -84 42 -167q7 -42 10.5 -82.5t3.5 -82.5q0 -350 -157 -546t-442 -196q-80 0 -153 19q-77 20 -144 58q-69 39 -123 105q-55 67 -83 153l326 60
q37 -63 80 -87q42 -24 99 -24q56 0 101 21q46 21 72 55q28 36 47 72q10 19 16.5 38t11.5 39q9 39 12 63t3 39q-19 -52 -107 -91q-87 -39 -197 -39q-83 0 -153 21t-118 54q-24 17 -45 36t-40 41q-38 44 -59 89q-11 23 -19.5 45t-15.5 45q-13 45 -18 77q-2 16 -3.5 30t-1.5 26
zM431 939q0 -95 58 -165t157 -70t157 70t58 165t-58 165q-59 71 -157 71q-99 0 -157 -70t-58 -165v-1z" />
    <glyph glyph-name="colon" unicode=":" horiz-adv-x="540" 
d="M94 344h350v-344h-350v344zM94 1036h350v-344h-350v344z" />
    <glyph glyph-name="semicolon" unicode=";" horiz-adv-x="540" 
d="M94 344h350v-344l-194 -344h-156l156 344h-156v344zM94 1036h350v-344h-350v344z" />
    <glyph glyph-name="less" unicode="&#x3c;" horiz-adv-x="1157" 
d="M102 586l959 481v-248l-625 -299l625 -295v-248l-959 467v142z" />
    <glyph glyph-name="equal" unicode="=" horiz-adv-x="1089" 
d="M86 446h918v-262h-918v262zM86 879h918v-263h-918v263z" />
    <glyph glyph-name="greater" unicode="&#x3e;" horiz-adv-x="1157" 
d="M102 225l625 295l-625 299v248l959 -481v-142l-959 -467v248z" />
    <glyph glyph-name="question" unicode="?" horiz-adv-x="1083" 
d="M52 999q10 223 135 340q124 117 345 117q235 0 367 -114t132 -319q0 -69 -19 -123q-20 -56 -58 -99q-39 -44 -77 -74q-36 -29 -95 -66q-21 -13 -37 -27q-14 -13 -30 -41q-14 -26 -19 -60v2v-88h-329v147q-7 117 156 229q88 61 123 108t35 96q0 71 -37 111t-109 40
q-64 0 -103 -66t-39 -170l-338 62zM357 339h351v-344h-351v344z" />
    <glyph glyph-name="at" unicode="@" horiz-adv-x="2060" 
d="M79 373q0 160 45 309q46 151 124 266q80 118 187 213q109 97 234 161q126 64 264 99q140 35 278 35q115 0 223 -27q109 -27 206 -84q97 -56 171 -140q73 -82 117 -203q43 -119 43 -265q0 -139 -39 -265t-100 -214q-61 -87 -135 -154q-73 -65 -145 -97q-71 -31 -130 -31
q-86 0 -146 30t-91 76q-137 -106 -293 -106q-203 0 -315 117q-113 118 -113 314q0 188 85 342t237 243q151 88 336 90q148 0 234 -69l22 49h248l-190 -813q-4 -19 -6 -32q-2 -12 6 -24q7 -12 27 -12q58 0 129 89t119 221t48 248q0 135 -41 240q-41 103 -117 168
q-78 66 -181 98q-105 33 -235 33q-171 0 -333 -76q-164 -77 -285 -199q-120 -122 -196 -290q-75 -167 -75 -339q0 -126 44 -238q43 -110 126 -196q82 -85 215 -135q131 -49 298 -49q158 0 307 52q151 53 353 168l107 -141q-24 -15 -42.5 -26t-31.5 -19t-34 -19.5t-50 -27.5
q-59 -32 -102 -51q-22 -10 -49 -21t-60 -24q-66 -26 -123 -39q-57 -14 -129 -24q-36 -5 -71.5 -7.5t-70.5 -2.5q-213 0 -385 63t-283 174q-110 110 -169 255q-58 143 -58 311zM758 405q0 -106 40 -165q40 -60 112 -60q109 0 186 66q76 65 100 159l70 280q19 79 -33 135
q-53 56 -126 56q-86 0 -167 -69t-132 -179t-51 -222z" />
    <glyph glyph-name="A" unicode="A" horiz-adv-x="1425" 
d="M557 1442h317l525 -1442h-359l-84 250h-481l-80 -250h-362zM864 532l-147 459l-150 -459h297z" />
    <glyph glyph-name="B" unicode="B" horiz-adv-x="1404" 
d="M148 1440h673q211 0 330 -110q118 -109 118 -314q0 -91 -56 -171t-111 -96q83 -27 152 -113t69 -203q0 -209 -124 -321t-345 -112h-704zM827 281q67 0 109 44q42 43 42 107q0 69 -37 116q-38 48 -109 48h-338v-315h333zM807 879q51 0 92 38t41 89q0 64 -37 107
q-38 44 -94 44h-317v-278h315z" />
    <glyph glyph-name="C" unicode="C" horiz-adv-x="1421" 
d="M86 721q0 218 72 383t219 261t351 96q490 0 610 -487l-337 -62q-30 134 -100 201t-172 67q-144 0 -216 -120t-72 -340q0 -221 72 -339q72 -119 216 -119q103 0 174 66q70 66 99 200l335 -61q-39 -217 -196 -352q-158 -135 -411 -135q-204 0 -351 96t-219 261t-72 384h-2z
" />
    <glyph glyph-name="D" unicode="D" horiz-adv-x="1488" 
d="M150 1439h591q206 -2 350 -93q145 -92 215 -252q70 -159 70 -376q0 -338 -154 -528t-460 -190h-612v1439zM743 279q130 0 207 114q77 115 77 323q0 216 -76 328t-210 112h-249v-876z" />
    <glyph glyph-name="E" unicode="E" horiz-adv-x="1329" 
d="M150 1442h1079v-283h-733v-278h620v-283h-620v-315h733v-283h-1079v1442z" />
    <glyph glyph-name="F" unicode="F" horiz-adv-x="1267" 
d="M150 1442h1036v-283h-694v-278h583v-283h-583v-598h-342v1442z" />
    <glyph glyph-name="G" unicode="G" horiz-adv-x="1509" 
d="M80 721q0 185 54 329q55 145 148 233q96 90 217 134q123 45 268 45q241 0 393 -110q151 -110 213 -303l-334 -62q-33 93 -112 143q-80 51 -157 51q-163 0 -247 -108t-84 -352q0 -245 84 -351q84 -107 248 -107q72 0 129 27q56 27 91 72q34 44 52 99q18 54 18 114v7h-289
v278h612v-860h-303l-20 137q-47 -58 -141 -107q-95 -50 -207 -50q-295 0 -460 201t-165 540h-8z" />
    <glyph glyph-name="H" unicode="H" horiz-adv-x="1454" 
d="M150 1442h346v-561h487v561h344v-1442h-344v598h-487v-598h-346v1442z" />
    <glyph glyph-name="I" unicode="I" horiz-adv-x="638" 
d="M150 1442h346v-1442h-346v1442z" />
    <glyph glyph-name="J" unicode="J" horiz-adv-x="1081" 
d="M382 554q0 -78 1.5 -125.5t3.5 -64.5q11 -83 65 -98q18 -5 36 -5q105 0 105 148v1032h346v-1012q0 -79 -12 -142q-12 -65 -43 -122q-32 -59 -81 -98t-131 -63q-81 -24 -189 -24q-448 0 -448 514z" />
    <glyph glyph-name="K" unicode="K" horiz-adv-x="1478" 
d="M150 1442h346v-580l462 580h412l-541 -682l623 -760h-434l-412 496l-110 -136v-360h-346v1442z" />
    <glyph glyph-name="L" unicode="L" horiz-adv-x="1167" 
d="M150 1442h348v-1159h630v-283h-978v1442z" />
    <glyph glyph-name="M" unicode="M" horiz-adv-x="1798" 
d="M150 1442h421l328 -1006l324 1006h426v-1442h-349v770l-249 -770h-306l-249 770v-770h-346v1442z" />
    <glyph glyph-name="N" unicode="N" horiz-adv-x="1501" 
d="M150 1442h333l549 -848v848h346v-1442h-338l-544 848v-848h-346v1442z" />
    <glyph glyph-name="O" unicode="O" 
d="M87 722q0 218 72 383t219 261t350 96q205 0 352 -96t219 -261t72 -384t-72 -384t-219 -261t-352 -96q-202 0 -349 96t-219 261t-72 384zM440 722q0 -459 287 -459q148 0 220 119q72 118 72 341q0 220 -72 339t-219 119q-287 0 -287 -459h-1z" />
    <glyph glyph-name="P" unicode="P" horiz-adv-x="1347" 
d="M150 1442h651q208 0 342 -131q133 -130 133 -327q0 -200 -133 -330t-342 -130h-305v-524h-346v1442zM780 807q55 0 103 51t48 125t-48 125t-103 51h-284v-352h284z" />
    <glyph glyph-name="Q" unicode="Q" 
d="M84 722q0 218 72 383t219 261t350 96q205 0 352 -96t219 -261t72 -384q0 -322 -151 -518l149 -146l-162 -157l-155 153q-133 -73 -321 -73q-202 0 -349 96t-219 261t-72 384zM437 724q0 -459 287 -459q50 0 92 14q-35 34 -71 69t-73 73l164 157l137 -137q43 105 43 282
q0 220 -72 339t-219 119q-287 0 -287 -459z" />
    <glyph glyph-name="R" unicode="R" horiz-adv-x="1419" 
d="M149 1441h651q208 0 342 -131q133 -130 133 -327q0 -159 -92 -280q-91 -119 -243 -160h-2l442 -543h-391l-428 524h-65v-524h-346zM781 806q55 0 103 51t48 125t-48 125t-103 51h-286v-352h286z" />
    <glyph glyph-name="S" unicode="S" horiz-adv-x="1363" 
d="M428 532q0 -38 9 -75t30 -73q20 -35 50 -63q29 -28 74 -44q46 -17 99 -17q115 0 179 47q63 46 63 126q0 45 -21 77t-58 48q-19 8 -37.5 14.5t-37.5 11.5t-40.5 8t-46.5 5q-42 4 -81 9.5t-76 13.5t-74.5 19.5t-76.5 27.5q-77 31 -132 77q-54 45 -90 116q-36 70 -36 159
q0 90 33 165q34 77 88 125q55 49 129 84q75 35 152 50q78 15 159 15q149 0 281 -57t216 -162t84 -235l-324 -54q-5 62 -31 108q-27 47 -66 71t-79 36q-41 12 -81 12q-59 0 -107 -14q-46 -13 -79 -51t-33 -93q0 -50 63 -87q62 -37 187 -55q64 -9 110 -18q24 -5 51 -11.5
t58 -14.5q60 -16 107 -38q23 -11 46 -24.5t46 -30.5q48 -36 77 -76t49 -101q19 -57 19 -129q0 -200 -156 -327q-155 -127 -429 -127q-126 0 -228 30t-169 79q-68 50 -114 115q-47 66 -69 133q-23 67 -27 138z" />
    <glyph glyph-name="T" unicode="T" horiz-adv-x="1163" 
d="M55 1442h1057v-279h-354v-1163h-344v1163h-359v279z" />
    <glyph glyph-name="U" unicode="U" horiz-adv-x="1460" 
d="M148 1440h346v-940q0 -105 66 -172t174 -67q105 0 171 68q66 67 66 173v940h344v-940q0 -126 -48 -228t-129 -165t-184 -96q-104 -33 -219 -33q-118 0 -221 33q-104 33 -186 96q-82 62 -130 165q-48 102 -48 228z" />
    <glyph glyph-name="V" unicode="V" horiz-adv-x="1439" 
d="M408 1442l311 -944l313 944h369l-524 -1442h-318l-514 1442h363z" />
    <glyph glyph-name="W" unicode="W" horiz-adv-x="2000" 
d="M403 1442l142 -901l223 901h422l225 -910l193 910h354l-334 -1442h-397l-252 946l-248 -946h-403l-283 1442h358z" />
    <glyph glyph-name="X" unicode="X" horiz-adv-x="1380" 
d="M501 723q-44 67 -129 207q-43 70 -75 122t-54 87l-189 303h385l252 -416q20 32 50.5 82.5t72.5 120.5t74.5 123t55.5 90h383l-444 -719q31 -49 84 -135t130 -211t135 -218.5t99 -157.5h-387l-252 416q-14 -22 -33 -54.5t-45 -76.5q-51 -87 -93 -156q-21 -35 -41 -67
t-40 -63h-385z" />
    <glyph glyph-name="Y" unicode="Y" horiz-adv-x="1363" 
d="M414 1442l258 -434l258 434h405l-491 -754v-688h-344v688l-465 754h379z" />
    <glyph glyph-name="Z" unicode="Z" horiz-adv-x="1267" 
d="M88 211l666 948h-664v283h1094v-211l-664 -948h666v-283h-1098v211z" />
    <glyph glyph-name="bracketleft" unicode="[" horiz-adv-x="653" 
d="M63 1442h543v-164h-293v-1489h293v-166h-543v1819z" />
    <glyph glyph-name="backslash" unicode="\" horiz-adv-x="784" 
d="M293 1442l446 -1442h-305l-432 1442h291z" />
    <glyph glyph-name="bracketright" unicode="]" horiz-adv-x="653" 
d="M358 -211v1489h-295v164h543v-1819h-543v166h295z" />
    <glyph glyph-name="asciicircum" unicode="^" horiz-adv-x="1026" 
d="M408 1442h219l354 -795h-256l-207 483l-209 -483h-258z" />
    <glyph glyph-name="underscore" unicode="_" horiz-adv-x="1064" 
d="M86 190h897v-190h-897v190z" />
    <glyph glyph-name="grave" unicode="`" horiz-adv-x="593" 
d="M365 1442l165 -322h-243l-230 322h308z" />
    <glyph glyph-name="a" unicode="a" horiz-adv-x="1198" 
d="M87 328q0 127 122 220q121 93 326 93h194v29q0 44 -39 80t-111 36q-53 0 -93 -30t-45 -86l-327 63q16 84 60 147t107 101q64 38 138 56q75 18 159 18q219 0 349 -103t130 -295v-360q0 -20 11 -33q10 -12 29 -12l49 6v-254q-98 -26 -184 -26q-70 0 -121 33q-50 32 -76 86
q-38 -47 -122 -82q-83 -35 -168 -36q-177 0 -282 96t-105 253h-1zM419 327q0 -78 106 -78q85 0 144 39q58 39 60 98v25h-197q-61 0 -88 -27t-27 -56z" />
    <glyph glyph-name="b" unicode="b" horiz-adv-x="1275" 
d="M150 1441h331v-492q34 49 114 78q81 29 144 29q212 0 333 -148t121 -391q0 -236 -128 -387q-128 -150 -324 -150q-73 0 -151 33q-77 33 -109 83l-20 -96h-311v1441zM479 515q0 -139 53 -204t141 -65q85 0 138 66q53 67 53 205q0 139 -52 203q-53 65 -138 65
q-89 0 -141 -64t-52 -204z" />
    <glyph glyph-name="c" unicode="c" horiz-adv-x="1171" 
d="M87 518q0 241 142 390q142 150 376 150q190 0 315 -92q124 -91 169 -254l-328 -62q-20 71 -63 104q-44 33 -90 33q-190 0 -190 -268q0 -128 46 -199q46 -72 144 -72q54 0 100 35q44 34 64 102l328 -61q-38 -155 -169 -249q-133 -95 -325 -95q-233 0 -376 149
q-142 148 -142 389h-1z" />
    <glyph glyph-name="d" unicode="d" horiz-adv-x="1275" 
d="M90 517q0 243 121 391t333 148q66 0 144 -28q80 -29 113 -78v492h334v-1442h-312l-22 96q-30 -49 -108 -82t-151 -33q-200 0 -327 150q-127 149 -127 387zM418 518q0 -138 53 -205q52 -66 138 -66q89 0 140 65q51 64 51 204q0 139 -51 204t-139 65q-85 0 -138 -65
q-52 -64 -52 -203z" />
    <glyph glyph-name="e" unicode="e" horiz-adv-x="1193" 
d="M88 518q0 240 138 390t363 150t360 -138t135 -363q0 -67 -10 -126h-657q4 -84 61 -133q56 -49 133 -49q28 0 47 4q11 2 23.5 6t26.5 10q29 12 56 41q28 30 50 72l299 -98q-144 -303 -502 -303q-229 0 -376 150t-147 387zM737 659q-9 59 -49 93t-100 34q-57 0 -100 -36
t-52 -91h301z" />
    <glyph glyph-name="f" unicode="f" horiz-adv-x="774" 
d="M36 1036h164v105q0 301 323 301h203v-271h-152q-26 0 -36 -13t-10 -48v-74h154v-229h-154v-807h-329v807h-164z" />
    <glyph glyph-name="g" unicode="g" horiz-adv-x="1273" 
d="M84 516q0 236 132 388q132 151 338 151q70 0 144 -33t96 -76l22 88h311v-981q0 -113 -42 -204q-42 -92 -114 -152t-166 -93q-95 -33 -201 -33q-179 0 -310 68q-130 67 -184 201l323 97q12 -38 45 -60t65 -30q29 -7 63 -7q191 0 191 213v19q-26 -45 -102 -69
q-77 -24 -138 -24q-199 0 -334 152q-135 151 -135 387zM412 514q0 -140 52 -204q53 -65 141 -65q85 0 138 66q52 65 52 205q0 139 -52 203q-53 65 -138 65q-89 0 -141 -64t-52 -204v-2z" />
    <glyph glyph-name="h" unicode="h" horiz-adv-x="1241" 
d="M151 1440h329v-479q29 38 97 66q70 29 135 29q224 0 326 -117t102 -367v-573h-330v573q0 115 -42 165t-124 50q-75 0 -120 -52q-45 -53 -45 -162v-573h-329z" />
    <glyph glyph-name="i" unicode="i" horiz-adv-x="626" 
d="M152 1036h329v-1036h-329v1036zM152 1442h329v-297h-329v297z" />
    <glyph glyph-name="j" unicode="j" horiz-adv-x="679" 
d="M152 -138q25 0 36 14q10 13 10 47v1112h329v-1142q0 -143 -75 -221t-245 -78h-203v269zM197 1441h329v-297h-329v297z" />
    <glyph glyph-name="k" unicode="k" horiz-adv-x="1243" 
d="M149 1441h331v-662l273 256h442l-473 -436q45 -55 110.5 -135.5t153.5 -187.5t144 -175.5t82 -100.5h-389l-317 389l-25 -22v-367h-331z" />
    <glyph glyph-name="l" unicode="l" horiz-adv-x="624" 
d="M150 1442h329v-1442h-329v1442z" />
    <glyph glyph-name="m" unicode="m" horiz-adv-x="1826" 
d="M148 1036h309l20 -88q28 36 116 73q87 36 156 36q181 0 262 -133q33 46 132 90q100 44 175 44q114 0 188 -31q76 -32 119 -96q43 -63 61 -150q18 -86 18 -207v-575h-328v575q0 213 -141 213q-78 0 -111 -55q-33 -56 -33 -157v-575h-330v575q0 101 -31 156t-109 55
q-142 0 -142 -211v-575h-329z" />
    <glyph glyph-name="n" unicode="n" horiz-adv-x="1261" 
d="M150 1035h309l20 -88q20 39 95 74q76 35 137 35q233 0 330 -115q98 -116 98 -370v-571h-330v571q0 215 -166 215q-76 0 -120 -53t-44 -162v-571h-329v1035z" />
    <glyph glyph-name="o" unicode="o" horiz-adv-x="1185" 
d="M88 518q0 241 137 390t371 149q231 0 369 -150t138 -390q0 -241 -138 -389q-138 -149 -369 -149q-232 0 -370 149q-138 148 -138 390zM404 516q0 -140 51 -204q51 -65 139 -65q85 0 138 66q53 67 53 205q0 139 -52 203q-53 65 -138 65q-87 0 -138 -64q-51 -65 -51 -204z
" />
    <glyph glyph-name="p" unicode="p" horiz-adv-x="1286" 
d="M150 1036h311l20 -96q32 50 109 83q78 33 151 33q197 0 324 -151q128 -152 128 -388q0 -244 -121 -390q-122 -147 -333 -147q-66 0 -144 28q-80 28 -114 78v-492h-331v1442zM477 516q0 -139 53 -204t141 -65q85 0 138 66q53 67 53 205q0 139 -52 203q-53 65 -138 65
q-89 0 -141 -64t-52 -204z" />
    <glyph glyph-name="q" unicode="q" horiz-adv-x="1286" 
d="M98 518q0 236 128 388q127 151 324 151q73 0 151 -33q77 -33 109 -83l20 96h312v-1442h-332v492q-35 -50 -114 -78q-78 -28 -144 -28q-212 0 -333 147q-121 146 -121 390zM430 519q0 -138 53 -205q52 -66 138 -66q88 0 141 65q52 64 52 204t-52 204q-53 65 -141 65
q-85 0 -138 -65t-53 -203v1z" />
    <glyph glyph-name="r" unicode="r" horiz-adv-x="849" 
d="M150 1035h309l20 -88q13 20 24.5 35t22.5 26q21 21 59 35q39 14 93 14h121v-269h-176q-144 0 -144 -235v-553h-329v1035z" />
    <glyph glyph-name="s" unicode="s" horiz-adv-x="1118" 
d="M414 347q37 -100 155 -100q20 0 41 3q11 2 22 4.5t23 6.5q23 7 39 26q15 18 15 44q0 53 -154 66q-161 19 -228 42q-183 61 -205 232q-3 24 -3 51q0 140 126 236t306 96q395 0 475 -299l-319 -62q-19 55 -52 73t-93 18q-46 0 -79 -18t-33 -42q0 -45 129 -55q35 -4 64.5 -8
t55.5 -9t52.5 -11t54.5 -14q58 -17 95 -40q38 -23 72 -59q32 -34 49 -84q17 -51 17 -112q0 -88 -39 -157t-105 -111t-150 -63t-178 -21q-120 0 -214 31q-95 31 -166 102q-71 70 -99 174z" />
    <glyph glyph-name="t" unicode="t" horiz-adv-x="837" 
d="M67 1037h163v281h330v-281h197v-229h-197v-498q0 -67 38 -69q4 0 5 1l111 12v-254l-158 -18q-16 -2 -31 -3t-29 -1q-117 0 -183 63q-83 78 -84 219v547h-163z" />
    <glyph glyph-name="u" unicode="u" horiz-adv-x="1261" 
d="M128 1037h330v-571q0 -215 166 -215q74 0 118 53q43 52 43 162v571h330v-1036h-307l-23 88q-20 -41 -96 -75q-75 -34 -153 -34q-218 0 -313 116q-94 115 -94 369z" />
    <glyph glyph-name="v" unicode="v" horiz-adv-x="1196" 
d="M387 1036l213 -659l209 659h346l-397 -1036h-318l-399 1036h346z" />
    <glyph glyph-name="w" unicode="w" horiz-adv-x="1777" 
d="M395 1036l117 -620l199 620h342l198 -622l138 622h348l-271 -1036h-389l-194 627l-197 -627h-389l-252 1036h350z" />
    <glyph glyph-name="x" unicode="x" horiz-adv-x="1130" 
d="M383 514l-344 522h369l161 -258q46 76 165 258h369l-346 -522l346 -514h-377l-156 248q-14 -24 -35 -57.5t-49 -76.5q-56 -86 -72 -114h-379z" />
    <glyph glyph-name="y" unicode="y" horiz-adv-x="1202" 
d="M393 1036l213 -659l209 659h346l-397 -1036h-2l-156 -406h-309l147 408l-397 1034h346z" />
    <glyph glyph-name="z" unicode="z" horiz-adv-x="1091" 
d="M98 254l475 512h-456v270h862v-256l-467 -512h487v-268h-901v254z" />
    <glyph glyph-name="braceleft" unicode="{" horiz-adv-x="741" 
d="M63 615h35q10 0 32 5q19 4 30 12q10 7 19 24q9 16 9 39v484q0 42 8 80q8 37 27 71q20 35 51 59q32 24 79 39q48 15 110 15h170v-164h-148q-53 0 -53 -61v-476q0 -166 -117 -217q117 -47 117 -210v-483q0 -57 53 -57h148v-168h-170q-150 0 -213 70t-63 195v491
q0 41 -30 59t-94 18v175z" />
    <glyph glyph-name="bar" unicode="|" horiz-adv-x="450" 
d="M66 1442h251v-1837h-251v1837z" />
    <glyph glyph-name="braceright" unicode="}" horiz-adv-x="741" 
d="M218 -230q51 0 51 57v483q0 54 11 96q11 41 30 62q20 21 38 32q19 11 42 17q-123 51 -123 221v476q0 29 -13 45q-14 17 -39 17h-150v164h170q76 0 132 -21t86 -60q31 -40 44 -84q14 -47 14 -99v-484q0 -21 8 -39q7 -17 18 -24q10 -8 30 -12q10 -2 18 -3t14 -1h35v-174
q-64 0 -94 -18t-30 -59v-491q0 -264 -277 -264h-170v168z" />
    <glyph glyph-name="asciitilde" unicode="~" horiz-adv-x="1210" 
d="M102 539q7 8 17.5 20.5t24.5 29.5q28 32 44 50q8 8 17.5 18.5t22.5 23.5q27 27 45 38q19 12 45 27t52 21q27 6 56 6q40 0 76 -12q37 -12 103 -46l62 -31q97 -51 139 -51q28 0 54 21q13 11 35 33t54 57l154 -141q-12 -13 -43 -49t-43 -49q-7 -8 -16.5 -17.5l-22.5 -22.5
q-26 -26 -44 -38q-9 -6 -19.5 -12.5t-23.5 -13.5q-24 -13 -51 -19q-26 -6 -54 -6q-44 0 -81 12q-19 6 -43 17t-53 27l-61 33q-101 51 -139 51q-29 0 -55 -22q-14 -11 -36 -33.5t-54 -57.5l-158 136h-4z" />
    <glyph glyph-name="uni00A0" unicode="&#xa0;" horiz-adv-x="493" 
 />
    <glyph glyph-name="exclamdown" unicode="&#xa1;" horiz-adv-x="526" 
d="M25 406l41 587h268l43 -587v-406h-352v406zM25 1442h350v-344h-350v344z" />
    <glyph glyph-name="cent" unicode="&#xa2;" horiz-adv-x="1140" 
d="M59 518q0 211 111 354q111 142 302 174v192h188v-188q155 -20 257 -108q102 -89 144 -231l-328 -62q-23 75 -75 111v-492q63 40 84 117l328 -61q-35 -137 -144 -228q-110 -92 -270 -110v-181h-188v185q-191 32 -302 174t-111 354h4zM389 518q0 -174 84 -237v473
q-84 -63 -84 -236z" />
    <glyph glyph-name="sterling" unicode="&#xa3;" horiz-adv-x="1286" 
d="M42 279h68q48 0 76 28t28 87v205h-172v283h172v133q0 92 29 173q28 79 83 140q54 60 140 95q87 35 192 35q208 0 333 -105q124 -105 124 -318l-344 -57q0 119 -25 159q-26 41 -87 41q-52 0 -76 -39t-24 -121v-133h213v-283h-213v-205q0 -71 -31 -114h244v254h344v-537
h-1073z" />
    <glyph glyph-name="currency" unicode="&#xa4;" horiz-adv-x="1130" 
d="M130 221q-72 130 -72 297q0 168 74 301l-145 146l131 129l135 -136q129 99 315 99q178 0 315 -99l139 136l131 -129l-149 -146q73 -130 73 -301q0 -169 -71 -297l147 -141l-131 -129l-135 129q-133 -100 -318 -100q-186 0 -319 100l-131 -129l-131 129zM376 516
q0 -140 52 -204q53 -65 141 -65q85 0 138 66q53 67 53 205t-53 203t-138 65q-89 0 -141 -64t-52 -204v-2z" />
    <glyph glyph-name="yen" unicode="&#xa5;" horiz-adv-x="1320" 
d="M406 1442l258 -434l258 434h378l-358 -584h182v-221h-288v-211h288v-221h-288v-205h-347v205h-284v221h284v211h-284v221h180q-20 30 -156 252q-69 112 -119 194.5t-83 137.5h379z" />
    <glyph glyph-name="brokenbar" unicode="&#xa6;" horiz-adv-x="450" 
d="M66 453h251v-848h-251v848zM66 1442h251v-848h-251v848z" />
    <glyph glyph-name="section" unicode="&#xa7;" horiz-adv-x="1255" 
d="M83 573q0 51 14 99q14 47 42 86q29 39 52 64q12 13 27.5 28t34.5 32q-22 33 -37 87q-15 52 -15 96q0 75 32 148q31 71 87 127t135 89t171 33q53 0 104 -9q52 -9 113 -36t108 -69q45 -41 79 -116q33 -73 36 -170l-315 -53q0 48 -9 83q-9 36 -19 51q-11 17 -27 26
q-15 8 -26 10q-5 1 -10.5 1h-12.5q-50 0 -75 -37t-25 -78q0 -73 48 -121q47 -47 125 -61q76 -18 135 -39q60 -22 120 -58q63 -38 101 -84q40 -48 65 -118q26 -73 26 -160q0 -58 -16 -105q-17 -48 -46 -82q-32 -36 -51 -53q-11 -9 -23.5 -18.5t-27.5 -19.5q49 -73 49 -180
q0 -156 -121 -273q-122 -117 -307 -117q-65 0 -123 12q-59 12 -117 42q-57 29 -100 77q-41 45 -70 122q-28 74 -31 171l322 51q0 -64 7 -102q7 -40 23 -60q15 -20 33 -27q17 -7 45 -7q40 0 67 36t27 72q0 47 -12 82q-12 34 -41 57q-28 22 -59 36q-29 13 -80 27
q-170 46 -240 84q-154 80 -182 237q-7 38 -7 85zM417 598q0 -34 21 -61t64 -48t69 -30q13 -5 31.5 -10.5t43.5 -12.5q7 -1 10 -3q112 -32 154 -55q23 41 23 71q0 27 -18 51q-19 26 -40 41q-23 16 -60 33q-39 17 -61 24q-12 4 -26.5 8.5t-31.5 9.5q-104 25 -159 57
q-20 -42 -20 -81v6z" />
    <glyph glyph-name="dieresis" unicode="&#xa8;" horiz-adv-x="966" 
d="M102 1442h310v-297h-310v297zM559 1442h309v-297h-309v297z" />
    <glyph glyph-name="copyright" unicode="&#xa9;" horiz-adv-x="1597" 
d="M45 717q0 151 60 289q60 137 161 237t240 158q141 59 294 59q125 0 239 -37q118 -38 209 -106q93 -69 163 -160q70 -90 109 -204q39 -113 39 -234q0 -122 -39 -234q-39 -114 -109 -204q-70 -91 -163 -160q-91 -68 -209 -106q-114 -37 -239 -37q-153 0 -294 59
q-139 58 -240 158t-161 237q-60 138 -60 289v-4zM117 715q0 -181 92 -336q91 -154 249 -244q157 -90 342 -90q139 0 266 53q126 52 218 143q93 91 146 214q54 124 54 261q0 136 -54 261q-53 123 -146 214q-92 91 -218 143q-127 53 -265 53q-185 0 -342 -90
q-158 -90 -249 -244t-91 -336zM401 716q0 202 105 325t294 123q162 0 255 -81q94 -82 131 -232l-234 -41q-17 83 -57 128q-41 45 -96 45q-77 0 -117 -69q-41 -70 -41 -196q0 -127 41 -198t117 -71q53 0 94 45q40 45 60 128l234 -41q-70 -316 -387 -316q-189 0 -294 125
q-105 124 -105 327v-1z" />
    <glyph glyph-name="ordfeminine" unicode="&#xaa;" horiz-adv-x="727" 
d="M62 1050q0 71 68 124q67 52 183 52h109v14q0 25 -21 46t-61 21q-29 0 -52 -17q-22 -16 -25 -48l-182 37q18 91 89 136q70 45 171 45q123 0 195 -57t72 -163v-203q0 -24 23 -24l24 2v-142q-54 -14 -102 -14q-38 0 -66 18t-42 47q-22 -26 -69 -46q-45 -19 -94 -19
q-99 0 -159 54t-60 142zM247 1050q0 -43 61 -43q47 0 80 21t33 53v15h-109q-35 0 -50 -15t-15 -31z" />
    <glyph glyph-name="guillemotleft" unicode="&#xab;" horiz-adv-x="1280" 
d="M469 1036h295l-428 -520l430 -516h-297l-424 516zM909 1036h299l-432 -520q23 -27 56.5 -67t78.5 -94t86 -102t78 -92t70 -84t63 -77h-299l-422 516z" />
    <glyph glyph-name="logicalnot" unicode="&#xac;" horiz-adv-x="1261" 
d="M39 676h1057v-676h-344v373h-713v303z" />
    <glyph glyph-name="uni00AD" unicode="&#xad;" horiz-adv-x="964" 
d="M96 1442h778v-1442h-778v1442zM471 721l-346 670v-1340zM829 29l-344 663l-342 -663h686zM485 750l344 665h-686zM847 52v1338q-182 -347 -345 -669z" />
    <glyph glyph-name="registered" unicode="&#xae;" horiz-adv-x="1597" 
d="M45 717q0 151 60 289q60 137 161 237t240 158q141 59 294 59q125 0 239 -37q118 -38 209 -106q93 -69 163 -160q70 -90 109 -204q39 -113 39 -234q0 -122 -39 -234q-39 -114 -109 -204q-70 -91 -163 -160q-91 -68 -209 -106q-114 -37 -239 -37q-153 0 -294 59
q-139 58 -240 158t-161 237q-60 138 -60 289v-4zM117 715q0 -181 92 -336q91 -154 249 -244q157 -90 342 -90q139 0 266 53q126 52 218 143q93 91 146 214q54 124 54 261q0 136 -54 261q-53 123 -146 214q-92 91 -218 143q-127 53 -265 53q-185 0 -342 -90
q-158 -90 -249 -244t-91 -336zM469 1152h403q130 0 215 -80q84 -80 84 -201q0 -111 -67 -187t-127 -76h-8l270 -331h-272l-258 313h-4v-313h-236v875zM853 770q33 0 60 32q27 31 27 68t-27 69q-27 31 -61 31h-147v-199z" />
    <glyph glyph-name="macron" unicode="&#xaf;" horiz-adv-x="690" 
d="M88 1323h520v-154h-520v154z" />
    <glyph glyph-name="degree" unicode="&#xb0;" horiz-adv-x="829" 
d="M67 1118q0 143 101 242q100 99 246 99t247 -100q102 -101 102 -243q0 -141 -102 -241q-101 -100 -246 -100q-146 0 -246 100q-101 101 -101 243h-1zM249 1118q0 -68 48 -116t117 -48t117 48t48 116q0 67 -48 115t-117 48t-117 -48t-48 -115z" />
    <glyph glyph-name="plusminus" unicode="&#xb1;" horiz-adv-x="1206" 
d="M51 305h1102v-303h-1102v303zM51 1069h379v373h342v-373h381v-303h-381v-371h-342v371h-379v303z" />
    <glyph glyph-name="uni00B2" unicode="&#xb2;" horiz-adv-x="770" 
d="M86 761l291 295q12 11 21.5 20.5l17.5 17.5t14.5 18t13.5 23q14 26 14 51q0 34 -21 60t-57 26q-29 0 -51 -40t-19 -109l-215 35q0 134 85 209t201 75q128 0 213 -73q86 -74 86 -181q0 -74 -46 -142t-102 -118l-129 -125h295v-166h-610z" />
    <glyph glyph-name="uni00B3" unicode="&#xb3;" horiz-adv-x="763" 
d="M283 938q0 -65 27 -96q27 -32 64 -32t59 22q23 23 23 58q0 37 -24 60q-25 23 -58 23h-92v166h92q30 0 50 21q20 22 20 53q0 29 -21 55q-21 25 -49 25q-26 0 -44 -30t-18 -81l-219 35q0 105 83 174q82 69 198 69q121 0 206 -73q86 -74 86 -174q0 -41 -25 -82
q-26 -42 -63 -69q46 -28 74 -73q29 -47 29 -96q0 -111 -88 -178t-217 -67q-133 0 -221 68q-87 67 -87 189z" />
    <glyph glyph-name="acute" unicode="&#xb4;" horiz-adv-x="593" 
d="M223 1442h307l-227 -322h-246z" />
    <glyph glyph-name="uni00B5" unicode="&#xb5;" horiz-adv-x="1312" 
d="M151 1033h329v-596q3 -99 55 -144t132 -45q76 0 129 54q53 55 53 161v571h330v-755q10 -27 39 -27l47 6v-254q-98 -26 -183 -26q-71 0 -120 33q-48 32 -76 86q-49 -58 -97 -88t-127 -30q-68 0 -117 30q-50 30 -66 67v-482h-329z" />
    <glyph glyph-name="paragraph" unicode="&#xb6;" horiz-adv-x="1490" 
d="M27 983q0 197 133 327q134 131 342 131h762v-225h-90v-1623h-265v1623h-90v-1623h-266v930h-51q-209 0 -342 130t-133 330z" />
    <glyph glyph-name="periodcentered" unicode="&#xb7;" horiz-adv-x="540" 
d="M94 1036h350v-344h-350v344z" />
    <glyph glyph-name="cedilla" unicode="&#xb8;" horiz-adv-x="577" 
d="M226 -257q0 -23 15 -41t42 -18q30 0 45 21t15 69q0 90 -59 90q-44 0 -60 -58l-123 31l78 195h137l-49 -113q29 23 78 23q66 0 120 -45t54 -122q0 -93 -70 -151t-165 -58q-55 0 -99 16q-45 17 -70 40q-26 24 -39 48q-13 23 -13 45z" />
    <glyph glyph-name="uni00B9" unicode="&#xb9;" horiz-adv-x="573" 
d="M90 1241l184 201h201v-793h-215v520l-170 -157v229z" />
    <glyph glyph-name="ordmasculine" unicode="&#xba;" horiz-adv-x="763" 
d="M57 1163q0 135 80 218t215 83q132 0 212 -84q80 -85 80 -217q0 -136 -79 -218q-80 -83 -211 -83q-135 0 -215 83t-80 218h-2zM266 1161q0 -61 24 -100t60 -39q37 0 60 39q23 40 23 101q0 59 -23 100q-22 40 -59 40q-35 0 -59 -40q-24 -41 -24 -99z" />
    <glyph glyph-name="guillemotright" unicode="&#xbb;" horiz-adv-x="1280" 
d="M46 0q69 82 216 258q74 88 127.5 152t87.5 106l-432 520h299l422 -520l-422 -516h-299h1zM921 516l-431 520h295l424 -520l-424 -516h-297z" />
    <glyph glyph-name="onequarter" unicode="&#xbc;" horiz-adv-x="1671" 
d="M96 1241l185 201h200v-793h-215v520l-170 -157v229zM1139 1530l176 -100l-891 -1518l-178 100zM817 315l387 478h203v-461h164v-168h-164v-164h-215v164h-375v151zM1192 332v155l-129 -155h129z" />
    <glyph glyph-name="onehalf" unicode="&#xbd;" horiz-adv-x="1673" 
d="M96 1241l185 201h200v-793h-215v520l-170 -157v229zM1141 1530l176 -100l-891 -1518l-178 100zM930 123l299 301q71 71 71 125q0 34 -21 60t-57 26q-28 0 -51 -41q-22 -40 -19 -108l-215 35q0 134 85 209t201 75q128 0 213 -73q86 -74 86 -181q0 -125 -146 -260
l-131 -125h295v-166h-610v123z" />
    <glyph glyph-name="threequarters" unicode="&#xbe;" horiz-adv-x="1734" 
d="M307 938q0 -65 27 -96q27 -32 65 -32q36 0 59 22q24 22 24 58q0 37 -24 60q-25 23 -58 23h-114v166h114q29 0 50 21t21 53q0 29 -21 55q-21 25 -48 25q-26 0 -44 -30t-18 -80l-217 35q0 105 82 174t198 69q121 0 204 -73q84 -74 84 -175q0 -43 -24 -83q-24 -41 -62 -68
q46 -28 74 -73q29 -47 29 -96q0 -111 -88 -178t-217 -67q-135 0 -221 68t-86 189zM1253 1526l181 -100l-893 -1518l-180 100zM918 311l387 478h202v-461h164v-168h-164v-164h-215v164h-374v151zM1292 328v155l-129 -155h129z" />
    <glyph glyph-name="questiondown" unicode="&#xbf;" horiz-adv-x="1026" 
d="M-103 419q0 66 20 123q20 56 58 99q39 44 77 74q19 15 42.5 31.5t52.5 34.5q21 13 37 27q14 13 30 41q14 26 19 60v-2v88h330v-147q7 -119 -156 -231q-89 -62 -124 -108q-34 -44 -34 -94q0 -70 38 -111q37 -40 110 -40q64 0 103 66t39 170l338 -62q-10 -223 -135 -340
t-345 -117q-235 0 -367 114t-132 319zM220 1447h350v-344h-350v344z" />
    <glyph glyph-name="Agrave" unicode="&#xc0;" 
d="M569 1442h318l524 -1442h-358l-84 250h-482l-79 -250h-363zM719 1847l166 -321h-244l-229 321h307zM877 532l-148 459l-149 -459h297z" />
    <glyph glyph-name="Aacute" unicode="&#xc1;" 
d="M569 1442h318l524 -1442h-358l-84 250h-482l-79 -250h-363zM733 1847h307l-227 -321h-246zM877 532l-148 459l-149 -459h297z" />
    <glyph glyph-name="Acircumflex" unicode="&#xc2;" 
d="M569 1442h318l524 -1442h-358l-84 250h-482l-79 -250h-363zM575 1847h308l166 -321h-244l-76 166l-74 -166h-243zM877 532l-148 459l-149 -459h297z" />
    <glyph glyph-name="Atilde" unicode="&#xc3;" 
d="M569 1442h318l524 -1442h-358l-84 250h-482l-79 -250h-363zM328 1634q0 34 12 69t39 68t79 54t121 21q90 0 182 -59q43 -31 72 -31q67 0 67 90h227v-80q0 -36 -13 -69q-14 -35 -42 -66t-79 -52t-119 -21q-50 0 -103 17q-51 16 -83 41q-46 31 -70 31q-65 0 -65 -88h-225
v75zM877 530l-148 459l-149 -459h297z" />
    <glyph glyph-name="Adieresis" unicode="&#xc4;" 
d="M569 1442h318l524 -1442h-358l-84 250h-482l-79 -250h-363zM369 1847h309v-297h-309v297zM877 532l-148 459l-149 -459h297zM825 1847h310v-297h-310v297z" />
    <glyph glyph-name="Aring" unicode="&#xc5;" 
d="M569 1442h318l524 -1442h-358l-84 250h-482l-79 -250h-363zM527 1675q0 78 60 135t140 57q82 0 141 -57t59 -135q0 -83 -58 -138t-142 -55q-82 0 -141 55q-60 55 -60 138h1zM878 532l-148 459l-149 -459h297zM632 1674q0 -38 29 -65q28 -27 66 -27q40 0 67 27t27 65
t-27 65t-66 27q-38 0 -66 -27t-28 -64z" />
    <glyph glyph-name="AE" unicode="&#xc6;" horiz-adv-x="2199" 
d="M823 1442h1276v-283h-731v-278h662v-283h-662v-315h731v-283h-1077v250h-500l-137 -250h-352zM1022 532v627l-344 -627h344z" />
    <glyph glyph-name="Ccedilla" unicode="&#xc7;" horiz-adv-x="1421" 
d="M89 716q0 218 72 383t219 261t351 96q490 0 610 -487l-337 -62q-30 134 -100 201t-172 67q-144 0 -216 -120t-72 -340q0 -221 72 -339q72 -119 216 -119q103 0 174 66q70 66 99 200l335 -61q-39 -212 -189 -345q-150 -134 -394 -141l-31 -72q26 22 78 22q66 0 120 -45
t54 -122q0 -93 -70 -150q-71 -57 -165 -57q-55 0 -99 16q-45 17 -70 40q-26 24 -39 48q-13 23 -13 45l164 29q0 -22 14 -41q13 -18 41 -18q60 0 60 90q0 91 -60 91q-43 0 -59 -58l-123 31l64 162q-256 34 -396 233q-139 197 -139 501z" />
    <glyph glyph-name="Egrave" unicode="&#xc8;" horiz-adv-x="1329" 
d="M150 1442h1079v-283h-733v-278h620v-283h-620v-315h733v-283h-1079v1442zM723 1847l166 -321h-244l-229 321h307z" />
    <glyph glyph-name="Eacute" unicode="&#xc9;" horiz-adv-x="1329" 
d="M150 1442h1079v-283h-733v-278h620v-283h-620v-315h733v-283h-1079v1442zM662 1847h307l-228 -321h-245z" />
    <glyph glyph-name="Ecircumflex" unicode="&#xca;" horiz-adv-x="1329" 
d="M150 1442h1079v-283h-733v-278h620v-283h-620v-315h733v-283h-1079v1442zM526 1847h308l165 -321h-243l-76 166l-74 -166h-244z" />
    <glyph glyph-name="Edieresis" unicode="&#xcb;" horiz-adv-x="1329" 
d="M150 1442h1079v-283h-733v-278h620v-283h-620v-315h733v-283h-1079v1442zM303 1847h309v-297h-309v297zM760 1847h309v-297h-309v297z" />
    <glyph glyph-name="Igrave" unicode="&#xcc;" horiz-adv-x="503" 
d="M248 1847l166 -321h-244l-229 321h307zM82 1442h346v-1442h-346v1442z" />
    <glyph glyph-name="Iacute" unicode="&#xcd;" horiz-adv-x="538" 
d="M96 1442h346v-1442h-346v1442zM303 1847h307l-227 -321h-246z" />
    <glyph glyph-name="Icircumflex" unicode="&#xce;" horiz-adv-x="503" 
d="M100 1847h308l165 -321h-243l-76 166l-74 -166h-243zM90 1442h346v-1442h-346v1442z" />
    <glyph glyph-name="Idieresis" unicode="&#xcf;" horiz-adv-x="503" 
d="M-127 1847h309v-297h-309v297zM86 1442h346v-1442h-346v1442zM330 1847h309v-297h-309v297z" />
    <glyph glyph-name="Eth" unicode="&#xd0;" horiz-adv-x="1536" 
d="M29 824h217v619h571q155 -1 277 -54q121 -52 199 -148q79 -97 119 -228q41 -134 41 -294q0 -335 -162 -527t-472 -192h-571v662h-217zM816 284q130 0 207 114q77 115 77 322q0 216 -76 328t-207 112h-227v-336h211v-161h-211v-379h226z" />
    <glyph glyph-name="Ntilde" unicode="&#xd1;" horiz-adv-x="1521" 
d="M150 1442h333l549 -848v848h346v-1442h-338l-544 848v-848h-346v1442zM374 1588q0 34 12 69t39 68t79 54t121 21q90 0 182 -59q43 -31 72 -31q67 0 67 90h228v-80q0 -36 -13 -69q-13 -34 -42 -67t-79 -54q-51 -21 -119 -21q-50 0 -103 17q-51 16 -83 41q-45 30 -69 30
q-66 0 -66 -88h-225z" />
    <glyph glyph-name="Ograve" unicode="&#xd2;" 
d="M87 722q0 218 72 383t219 261t350 96q205 0 352 -96t219 -261t72 -384t-72 -384t-219 -261t-352 -96q-202 0 -349 96t-219 261t-72 384zM714 1848l166 -321h-244l-229 321h307zM440 722q0 -459 287 -459q148 0 220 119q72 118 72 341q0 220 -72 339t-219 119
q-287 0 -287 -459h-1z" />
    <glyph glyph-name="Oacute" unicode="&#xd3;" 
d="M87 722q0 218 72 383t219 261t350 96q205 0 352 -96t219 -261t72 -384t-72 -384t-219 -261t-352 -96q-202 0 -349 96t-219 261t-72 384zM440 722q0 -459 287 -459q148 0 220 119q72 118 72 341q0 220 -72 339t-219 119q-287 0 -287 -459h-1zM750 1848h307l-228 -321h-245
z" />
    <glyph glyph-name="Ocircumflex" unicode="&#xd4;" 
d="M87 722q0 218 72 383t219 261t350 96q205 0 352 -96t219 -261t72 -384t-72 -384t-219 -261t-352 -96q-202 0 -349 96t-219 261t-72 384zM585 1848h307l166 -321h-244l-76 166l-73 -166h-244zM440 722q0 -459 287 -459q148 0 220 119q72 118 72 341q0 220 -72 339
t-219 119q-287 0 -287 -459h-1z" />
    <glyph glyph-name="Otilde" unicode="&#xd5;" 
d="M87 722q0 218 72 383t219 261t350 96q205 0 352 -96t219 -261t72 -384t-72 -384t-219 -261t-352 -96q-202 0 -349 96t-219 261t-72 384zM316 1589q0 34 12 69t39 68t79 54t121 21q91 0 183 -59q43 -31 71 -31q68 0 68 90h227v-80q0 -36 -13 -69q-13 -34 -42 -67t-79 -54
q-51 -21 -119 -21q-50 0 -103 17q-51 16 -83 41q-45 30 -70 30q-65 0 -65 -88h-226v79zM440 723q0 -459 287 -459q148 0 220 119q72 118 72 341q0 220 -72 339t-219 119q-287 0 -287 -459h-1z" />
    <glyph glyph-name="Odieresis" unicode="&#xd6;" 
d="M87 722q0 218 72 383t219 261t350 96q205 0 352 -96t219 -261t72 -384t-72 -384t-219 -261t-352 -96q-202 0 -349 96t-219 261t-72 384zM347 1848h309v-297h-309v297zM440 722q0 -459 287 -459q148 0 220 119q72 118 72 341q0 220 -72 339t-219 119q-287 0 -287 -459h-1z
M803 1848h309v-297h-309v297z" />
    <glyph glyph-name="multiply" unicode="&#xd7;" horiz-adv-x="1185" 
d="M377 522l-318 314l222 221l313 -316l319 318l220 -221l-322 -314l326 -323l-222 -221l-321 325l-326 -325l-219 221z" />
    <glyph glyph-name="Oslash" unicode="&#xd8;" horiz-adv-x="1433" 
d="M168 308q-86 175 -86 414q0 218 72 383t219 261t350 96q280 0 447 -174l136 133l133 -129l-162 -157q88 -172 88 -414q0 -219 -72 -384t-219 -261t-352 -96q-284 0 -450 174l-135 -134l-131 130zM436 722q0 -43 2 -78.5t6 -64.5l496 485q-75 117 -217 117
q-287 0 -287 -459zM506 380q72 -117 217 -117q289 0 289 459q0 32 -3 67.5t-8 77.5z" />
    <glyph glyph-name="Ugrave" unicode="&#xd9;" horiz-adv-x="1460" 
d="M148 1440h346v-940q0 -105 66 -172t174 -67q105 0 171 68q66 67 66 173v940h344v-940q0 -126 -48 -228t-129 -165t-184 -96q-104 -33 -219 -33q-118 0 -221 33q-104 33 -186 96q-82 62 -130 165q-48 102 -48 228zM793 1845l166 -321h-244l-230 321h308z" />
    <glyph glyph-name="Uacute" unicode="&#xda;" horiz-adv-x="1460" 
d="M148 1440h346v-940q0 -105 66 -172t174 -67q105 0 171 68q66 67 66 173v940h344v-940q0 -126 -48 -228t-129 -165t-184 -96q-104 -33 -219 -33q-118 0 -221 33q-104 33 -186 96q-82 62 -130 165q-48 102 -48 228zM651 1845h308l-228 -321h-246z" />
    <glyph glyph-name="Ucircumflex" unicode="&#xdb;" horiz-adv-x="1460" 
d="M148 1440h346v-940q0 -105 66 -172t174 -67q105 0 171 68q66 67 66 173v940h344v-940q0 -126 -48 -228t-129 -165t-184 -96q-104 -33 -219 -33q-118 0 -221 33q-104 33 -186 96q-82 62 -130 165q-48 102 -48 228zM578 1845h307l166 -321h-244l-76 166l-74 -166h-243z" />
    <glyph glyph-name="Udieresis" unicode="&#xdc;" horiz-adv-x="1460" 
d="M148 1440h346v-940q0 -105 66 -172t174 -67q105 0 171 68q66 67 66 173v940h344v-940q0 -126 -48 -228t-129 -165t-184 -96q-104 -33 -219 -33q-118 0 -221 33q-104 33 -186 96q-82 62 -130 165q-48 102 -48 228zM348 1845h309v-297h-309v297zM805 1845h309v-297h-309
v297z" />
    <glyph glyph-name="Yacute" unicode="&#xdd;" horiz-adv-x="1304" 
d="M385 1442l258 -434l258 434h406l-492 -754v-688h-344v688l-465 754h379zM721 1847h307l-227 -321h-246z" />
    <glyph glyph-name="Thorn" unicode="&#xde;" horiz-adv-x="1224" 
d="M67 1442h346v-262h307q206 0 340 -131q133 -130 133 -327q0 -200 -132 -330q-131 -130 -340 -130h-307v-262h-346zM720 545q49 0 88 56q39 55 39 120q0 64 -39 120t-88 56h-307v-352h307z" />
    <glyph glyph-name="germandbls" unicode="&#xdf;" horiz-adv-x="1435" 
d="M146 937q0 172 74 291q73 118 203 174t305 56q113 0 201 -25q90 -25 146 -65q57 -40 95 -90q39 -51 54 -99t15 -91q0 -33 -6 -63q-3 -15 -6 -28.5t-7 -24.5q-8 -24 -22 -45q-8 -11 -14.5 -20t-11.5 -17q-9 -13 -32 -31q-11 -8 -19 -14t-13 -10q-11 -8 -33 -18
q-11 -5 -18.5 -8.5t-11.5 -5.5l-30 -12q-23 -9 -24 -9q-11 -5 -19 -8t-13 -5q-10 -5 -17 -15q-8 -11 -8 -25q0 -35 72 -45q81 -11 147 -36t119 -68q52 -42 82 -106q30 -65 30 -145q0 -146 -109 -249t-291 -103q-351 0 -432 317l301 61q7 -53 39 -82q31 -28 75 -28
q37 0 73 21t36 63q0 39 -33 65q-33 25 -78 30q-31 5 -57.5 9.5t-49.5 9.5q-46 11 -98 33t-85 54q-32 31 -55 84q-22 51 -22 120q0 46 17 86q16 38 41 66q23 26 63 52q38 25 68 39q14 7 32 15t40 17q28 10 46 33q18 22 18 51q0 41 -47 65t-144 24q-114 0 -177 -64
q-63 -65 -63 -178v-940h-340z" />
    <glyph glyph-name="agrave" unicode="&#xe0;" horiz-adv-x="1196" 
d="M87 328q0 127 122 220q121 93 326 93h194v29q0 44 -39 80t-111 36q-53 0 -93 -30t-45 -86l-327 63q16 84 60 147t107 101q64 38 138 56q75 18 159 18q219 0 349 -103t130 -295v-360q0 -20 11 -33q10 -12 29 -12l49 6v-254q-98 -26 -184 -26q-70 0 -121 33q-50 32 -76 86
q-38 -47 -122 -82q-83 -35 -168 -36q-177 0 -282 96t-105 253h-1zM556 1442l166 -322h-244l-229 322h307zM419 327q0 -78 106 -78q85 0 144 39q58 39 60 98v25h-197q-61 0 -88 -27t-27 -56z" />
    <glyph glyph-name="aacute" unicode="&#xe1;" horiz-adv-x="1196" 
d="M87 328q0 127 122 220q121 93 326 93h194v29q0 44 -39 80t-111 36q-53 0 -93 -30t-45 -86l-327 63q16 84 60 147t107 101q64 38 138 56q75 18 159 18q219 0 349 -103t130 -295v-360q0 -20 11 -33q10 -12 29 -12l49 6v-254q-98 -26 -184 -26q-70 0 -121 33q-50 32 -76 86
q-38 -47 -122 -82q-83 -35 -168 -36q-177 0 -282 96t-105 253h-1zM419 327q0 -78 106 -78q85 0 144 39q58 39 60 98v25h-197q-61 0 -88 -27t-27 -56zM603 1441h307l-227 -322h-246z" />
    <glyph glyph-name="acircumflex" unicode="&#xe2;" horiz-adv-x="1196" 
d="M87 328q0 127 122 220q121 93 326 93h194v29q0 44 -39 80t-111 36q-53 0 -93 -30t-45 -86l-327 63q16 84 60 147t107 101q64 38 138 56q75 18 159 18q219 0 349 -103t130 -295v-360q0 -20 11 -33q10 -12 29 -12l49 6v-254q-98 -26 -184 -26q-70 0 -121 33q-50 32 -76 86
q-38 -47 -122 -82q-83 -35 -168 -36q-177 0 -282 96t-105 253h-1zM425 1442h307l166 -322h-244l-75 166l-74 -166h-244zM419 327q0 -78 106 -78q85 0 144 39q58 39 60 98v25h-197q-61 0 -88 -27t-27 -56z" />
    <glyph glyph-name="atilde" unicode="&#xe3;" horiz-adv-x="1196" 
d="M87 328q0 127 122 220q121 93 326 93h194v29q0 44 -39 80t-111 36q-53 0 -93 -30t-45 -86l-327 63q16 84 60 147t107 101q64 38 138 56q75 18 159 18q219 0 349 -103t130 -295v-360q0 -20 11 -33q10 -12 29 -12l49 6v-254q-98 -26 -184 -26q-70 0 -121 33q-50 32 -76 86
q-38 -47 -122 -82q-83 -35 -168 -36q-177 0 -282 96t-105 253h-1zM185 1231q0 34 12 69t39 68t79 54t121 21q90 0 183 -60q43 -30 72 -30q68 0 68 90h227v-80q0 -36 -13 -69q-13 -34 -42 -67t-79 -54q-51 -21 -119 -21q-50 0 -103 17q-51 16 -83 41q-46 31 -69 31
q-65 0 -65 -88h-226zM417 327q0 -78 106 -78q85 0 144 39q58 39 60 98v25h-197q-61 0 -88 -27t-27 -56z" />
    <glyph glyph-name="adieresis" unicode="&#xe4;" horiz-adv-x="1196" 
d="M87 328q0 127 122 220q121 93 326 93h194v29q0 44 -39 80t-111 36q-53 0 -93 -30t-45 -86l-327 63q16 84 60 147t107 101q64 38 138 56q75 18 159 18q219 0 349 -103t130 -295v-360q0 -20 11 -33q10 -12 29 -12l49 6v-254q-98 -26 -184 -26q-70 0 -121 33q-50 32 -76 86
q-38 -47 -122 -82q-83 -35 -168 -36q-177 0 -282 96t-105 253h-1zM204 1442h309v-297h-309v297zM419 327q0 -78 106 -78q85 0 144 39q58 39 60 98v25h-197q-61 0 -88 -27t-27 -56zM663 1441h309v-297h-309v297z" />
    <glyph glyph-name="aring" unicode="&#xe5;" horiz-adv-x="1196" 
d="M87 328q0 127 122 220q121 93 326 93h194v29q0 44 -39 80t-111 36q-53 0 -93 -30t-45 -86l-327 63q16 84 60 147t107 101q64 38 138 56q75 18 159 18q219 0 349 -103t130 -295v-360q0 -20 11 -33q10 -12 29 -12l49 6v-254q-98 -26 -184 -26q-70 0 -121 33q-50 32 -76 86
q-38 -47 -122 -82q-83 -35 -168 -36q-177 0 -282 96t-105 253h-1zM391 1271q0 78 60 135t140 57q82 0 141 -57t59 -135q0 -83 -58 -138t-142 -55q-80 0 -141 56q-60 55 -60 138zM420 326q0 -78 106 -78q85 0 144 39q58 39 60 98v25h-197q-61 0 -88 -27t-27 -56zM498 1269
q0 -38 29 -65q28 -27 66 -27q40 0 67 27t27 65t-27 65t-66 27q-38 0 -66 -27t-28 -64z" />
    <glyph glyph-name="ae" unicode="&#xe6;" horiz-adv-x="1839" 
d="M87 331q0 127 122 220q121 93 326 93h194v29q0 44 -39 80t-111 36q-53 0 -93 -30t-45 -86l-327 63q16 84 60 147t107 101q64 38 138 56q75 18 159 18q218 0 344 -99q126 99 309 99q223 0 358 -138t135 -363q0 -67 -10 -126h-657q4 -84 61 -133q56 -49 133 -49q28 0 47 4
q11 2 23.5 6t26.5 10q29 12 56 41q28 30 50 72l301 -98q-149 -303 -504 -303q-116 0 -218 49q-104 50 -161 123q-73 -87 -164 -130q-90 -42 -213 -42q-179 0 -293 96t-114 251zM418 334q0 -31 29 -57q28 -25 87 -25q96 0 145 38t50 99v43h-176q-39 0 -69 -11
q-29 -11 -42 -27q-12 -15 -19 -32q-6 -15 -6 -27zM1382 643q-6 71 -46 108t-102 37q-61 0 -106 -39t-49 -106h303z" />
    <glyph glyph-name="ccedilla" unicode="&#xe7;" horiz-adv-x="1099" 
d="M14 518q0 239 143 390q142 150 377 150q190 0 314 -92q123 -91 168 -254l-328 -62q-20 71 -63 104q-44 33 -90 33q-98 0 -144 -70t-46 -198q0 -126 47 -199q46 -72 144 -72q54 0 100 35q44 34 64 102l328 -61q-38 -152 -165 -246q-128 -95 -315 -99l-25 -60q29 23 78 23
q66 0 120 -45t54 -122q0 -93 -70 -151t-165 -58q-55 0 -99 16q-45 17 -70 40q-26 24 -39 48q-13 23 -13 45l163 29q0 -23 15 -41t42 -18q30 0 45 21t15 69q0 90 -59 90q-44 0 -60 -58l-123 31l60 154q-185 35 -293 176t-108 350h-2z" />
    <glyph glyph-name="egrave" unicode="&#xe8;" horiz-adv-x="1204" 
d="M88 518q0 240 138 390t363 150t360 -138t135 -363q0 -67 -10 -126h-657q4 -84 61 -133q56 -49 133 -49q28 0 47 4q11 2 23.5 6t26.5 10q29 12 56 41q28 30 50 72l299 -98q-144 -303 -502 -303q-229 0 -376 150t-147 387zM598 1442l166 -322h-244l-229 322h307zM737 659
q-9 59 -49 93t-100 34q-57 0 -100 -36t-52 -91h301z" />
    <glyph glyph-name="eacute" unicode="&#xe9;" horiz-adv-x="1204" 
d="M88 518q0 240 138 390t363 150t360 -138t135 -363q0 -67 -10 -126h-657q4 -84 61 -133q56 -49 133 -49q28 0 47 4q11 2 23.5 6t26.5 10q29 12 56 41q28 30 50 72l299 -98q-144 -303 -502 -303q-229 0 -376 150t-147 387zM737 659q-9 59 -49 93t-100 34q-57 0 -100 -36
t-52 -91h301zM674 1442h307l-227 -322h-246z" />
    <glyph glyph-name="ecircumflex" unicode="&#xea;" horiz-adv-x="1204" 
d="M88 518q0 240 138 390t363 150t360 -138t135 -363q0 -67 -10 -126h-657q4 -84 61 -133q56 -49 133 -49q28 0 47 4q11 2 23.5 6t26.5 10q29 12 56 41q28 30 50 72l299 -98q-144 -303 -502 -303q-229 0 -376 150t-147 387zM449 1442h307l166 -322h-244l-76 166l-74 -166
h-243zM737 659q-9 59 -49 93t-100 34q-57 0 -100 -36t-52 -91h301z" />
    <glyph glyph-name="edieresis" unicode="&#xeb;" horiz-adv-x="1204" 
d="M88 518q0 240 138 390t363 150t360 -138t135 -363q0 -67 -10 -126h-657q4 -84 61 -133q56 -49 133 -49q28 0 47 4q11 2 23.5 6t26.5 10q29 12 56 41q28 30 50 72l299 -98q-144 -303 -502 -303q-229 0 -376 150t-147 387zM215 1442h309v-297h-309v297zM737 659
q-9 59 -49 93t-100 34q-57 0 -100 -36t-52 -91h301zM672 1442h309v-297h-309v297z" />
    <glyph glyph-name="igrave" unicode="&#xec;" horiz-adv-x="579" 
d="M289 1442l166 -322h-244l-229 322h307zM125 1036h330v-1036h-330v1036z" />
    <glyph glyph-name="iacute" unicode="&#xed;" horiz-adv-x="536" 
d="M252 1442h307l-227 -322h-246zM88 1036h330v-1036h-330v1036z" />
    <glyph glyph-name="icircumflex" unicode="&#xee;" horiz-adv-x="722" 
d="M209 1442h307l166 -322h-244l-76 166l-73 -166h-244zM205 1036h330v-1036h-330v1036z" />
    <glyph glyph-name="idieresis" unicode="&#xef;" horiz-adv-x="892" 
d="M68 1442h309v-297h-309v297zM289 1036h329v-1036h-329v1036zM524 1442h310v-297h-310v297z" />
    <glyph glyph-name="eth" unicode="&#xf0;" horiz-adv-x="1185" 
d="M85 518q0 236 128 388q127 151 320 151q91 0 124 -33q-41 81 -86 135l-282 -76l-43 158l219 59q-44 54 -127 142l248 65q44 -48 75 -83t50 -58l284 76l43 -158l-221 -59q127 -179 207 -363q79 -183 79 -345q0 -241 -138 -389q-138 -149 -369 -149q-232 0 -370 149
q-138 148 -138 390h-3zM401 516q0 -140 51 -204q51 -65 139 -65q85 0 138 66q53 67 53 205q0 139 -52 203q-53 65 -138 65q-87 0 -138 -64q-51 -65 -51 -204z" />
    <glyph glyph-name="ntilde" unicode="&#xf1;" horiz-adv-x="1181" 
d="M75 1034h309l21 -88q20 39 95 74q76 35 137 35q233 0 330 -115q98 -116 98 -370v-571h-330v571q0 215 -166 215q-77 0 -120 -52t-43 -162v-571h-330zM174 1229q0 34 12 69t39 68t79 54t121 21q89 0 182 -60q43 -30 72 -30q68 0 68 90h227v-80q0 -36 -13 -69
q-13 -34 -42 -67t-79 -54q-51 -21 -119 -21q-50 0 -103 17q-51 16 -83 41q-46 31 -69 31q-66 0 -66 -88h-225z" />
    <glyph glyph-name="ograve" unicode="&#xf2;" horiz-adv-x="1185" 
d="M88 518q0 241 137 390t371 149q231 0 369 -150t138 -390q0 -241 -138 -389q-138 -149 -369 -149q-232 0 -370 149q-138 148 -138 390zM569 1442l166 -322h-243l-230 322h307zM404 516q0 -140 51 -204q51 -65 139 -65q85 0 138 66q53 67 53 205q0 139 -52 203
q-53 65 -138 65q-87 0 -138 -64q-51 -65 -51 -204z" />
    <glyph glyph-name="oacute" unicode="&#xf3;" horiz-adv-x="1185" 
d="M88 518q0 241 137 390t371 149q231 0 369 -150t138 -390q0 -241 -138 -389q-138 -149 -369 -149q-232 0 -370 149q-138 148 -138 390zM404 516q0 -140 51 -204q51 -65 139 -65q85 0 138 66q53 67 53 205q0 139 -52 203q-53 65 -138 65q-87 0 -138 -64q-51 -65 -51 -204z
M621 1440h307l-228 -322h-245z" />
    <glyph glyph-name="ocircumflex" unicode="&#xf4;" horiz-adv-x="1185" 
d="M88 518q0 241 137 390t371 149q231 0 369 -150t138 -390q0 -241 -138 -389q-138 -149 -369 -149q-232 0 -370 149q-138 148 -138 390zM442 1442h308l165 -322h-243l-76 166l-74 -166h-243zM404 516q0 -140 51 -204q51 -65 139 -65q85 0 138 66q53 67 53 205
q0 139 -52 203q-53 65 -138 65q-87 0 -138 -64q-51 -65 -51 -204z" />
    <glyph glyph-name="otilde" unicode="&#xf5;" horiz-adv-x="1185" 
d="M88 518q0 241 137 390t371 149q231 0 369 -150t138 -390q0 -241 -138 -389q-138 -149 -369 -149q-232 0 -370 149q-138 148 -138 390zM196 1231q0 34 12 69t39 68t79 54t121 21q89 0 182 -60q43 -30 72 -30q68 0 68 90h227v-80q0 -36 -13 -69q-13 -34 -42 -67t-79 -54
q-51 -21 -119 -21q-50 0 -103 17q-51 16 -83 41q-46 31 -70 31q-65 0 -65 -88h-225zM403 516q0 -140 51 -204q51 -65 139 -65q85 0 138 66q53 67 53 205q0 139 -52 203q-53 65 -138 65q-87 0 -138 -64q-51 -65 -51 -204z" />
    <glyph glyph-name="odieresis" unicode="&#xf6;" horiz-adv-x="1185" 
d="M88 518q0 241 137 390t371 149q231 0 369 -150t138 -390q0 -241 -138 -389q-138 -149 -369 -149q-232 0 -370 149q-138 148 -138 390zM213 1442h309v-297h-309v297zM404 516q0 -140 51 -204q51 -65 139 -65q85 0 138 66q53 67 53 205q0 139 -52 203q-53 65 -138 65
q-87 0 -138 -64q-51 -65 -51 -204zM668 1440h309v-297h-309v297z" />
    <glyph glyph-name="divide" unicode="&#xf7;" horiz-adv-x="1251" 
d="M76 670h1100v-305h-1100v305zM457 344h350v-344h-350v344zM457 1036h350v-344h-350v344z" />
    <glyph glyph-name="oslash" unicode="&#xf8;" horiz-adv-x="1130" 
d="M129 221q-72 130 -72 297q0 241 138 390t372 149q178 0 315 -99l139 136l131 -129l-149 -146q73 -130 73 -301q0 -241 -138 -389q-138 -149 -369 -149q-186 0 -319 100l-131 -129l-131 129zM371 518q0 -32 6 -53l295 289q-44 32 -105 32q-88 0 -142 -65t-54 -203z
M455 282q44 -35 112 -35q85 0 138 66q53 67 53 205q0 21 -0.5 36t-1.5 24l-301 -295v-1z" />
    <glyph glyph-name="ugrave" unicode="&#xf9;" horiz-adv-x="1218" 
d="M87 1037h330v-571q0 -215 166 -215q74 0 118 53q43 52 43 162v571h330v-1036h-307l-23 88q-20 -41 -96 -75q-75 -34 -153 -34q-218 0 -313 116q-94 115 -94 369zM581 1443l166 -322h-244l-230 322h308z" />
    <glyph glyph-name="uacute" unicode="&#xfa;" horiz-adv-x="1218" 
d="M87 1037h330v-571q0 -215 166 -215q74 0 118 53q43 52 43 162v571h330v-1036h-307l-23 88q-20 -41 -96 -75q-75 -34 -153 -34q-218 0 -313 116q-94 115 -94 369zM638 1443h307l-227 -322h-246z" />
    <glyph glyph-name="ucircumflex" unicode="&#xfb;" horiz-adv-x="1218" 
d="M87 1037h330v-571q0 -215 166 -215q74 0 118 53q43 52 43 162v571h330v-1036h-307l-23 88q-20 -41 -96 -75q-75 -34 -153 -34q-218 0 -313 116q-94 115 -94 369zM437 1443h307l166 -322h-243l-76 166l-74 -166h-244z" />
    <glyph glyph-name="udieresis" unicode="&#xfc;" horiz-adv-x="1218" 
d="M87 1037h330v-571q0 -215 166 -215q74 0 118 53q43 52 43 162v571h330v-1036h-307l-23 88q-20 -41 -96 -75q-75 -34 -153 -34q-218 0 -313 116q-94 115 -94 369zM210 1443h309v-297h-309v297zM667 1443h309v-297h-309v297z" />
    <glyph glyph-name="yacute" unicode="&#xfd;" horiz-adv-x="1261" 
d="M424 1036l213 -659l209 659h346l-397 -1036h-2l-156 -406h-309l147 408l-397 1034h346zM662 1442h307l-228 -322h-245z" />
    <glyph glyph-name="thorn" unicode="&#xfe;" horiz-adv-x="1226" 
d="M93 1441h332v-459q34 34 95 54q62 20 115 20q225 0 354 -148q129 -149 129 -391q0 -238 -135 -388t-349 -150q-57 0 -117 21t-93 57v-463h-332zM425 515q0 -125 42 -195q42 -71 129 -71q94 0 142 72t48 195t-48 195t-142 72q-87 0 -129 -71t-42 -195v-2z" />
    <glyph glyph-name="ydieresis" unicode="&#xff;" horiz-adv-x="1202" 
d="M393 1036l213 -659l209 659h346l-397 -1036h-2l-156 -406h-309l147 408l-397 1034h346zM221 1442h309v-297h-309v297zM678 1442h309v-297h-309v297z" />
    <glyph glyph-name="OE" unicode="&#x152;" horiz-adv-x="2164" 
d="M87 722q0 218 72 383t219 261t350 96q166 0 297 -86v66h1038v-283h-733v-278h621v-283h-621v-315h733v-283h-1038v63q-125 -83 -297 -83q-202 0 -349 96t-219 261t-72 384zM440 722q0 -459 287 -459q148 0 220 119q72 118 72 341q0 220 -72 339t-219 119
q-287 0 -287 -459h-1z" />
    <glyph glyph-name="oe" unicode="&#x153;" horiz-adv-x="1888" 
d="M87 517q0 241 138 390t374 149q103 0 198 -45q96 -46 143 -109q50 67 142 110q94 44 198 44q225 0 360 -138t135 -363q0 -29 -3 -60.5t-8 -65.5h-637q3 -84 53 -133q49 -48 123 -48q50 0 105 35q53 34 97 117l301 -98q-158 -323 -504 -323q-217 0 -353 159
q-134 -159 -350 -159q-235 0 -373 149q-138 148 -138 390zM403 515q0 -140 51 -204q51 -65 139 -65q85 0 138 66q53 67 53 205q0 139 -52 203q-53 65 -138 65q-87 0 -138 -64q-51 -65 -51 -204zM1428 655q-9 59 -49 93q-41 35 -99 35q-59 0 -102 -36q-44 -36 -51 -91z" />
    <glyph glyph-name="Ydieresis" unicode="&#x178;" horiz-adv-x="1363" 
d="M414 1442l258 -434l258 434h405l-491 -754v-688h-344v688l-465 754h379zM291 1847h309v-297h-309v297zM748 1847h309v-297h-309v297z" />
    <glyph glyph-name="circumflex" unicode="&#x2c6;" horiz-adv-x="843" 
d="M270 1442h308l165 -322h-243l-76 166l-74 -166h-244z" />
    <glyph glyph-name="tilde" unicode="&#x2dc;" horiz-adv-x="864" 
d="M35 1233q0 34 12 69t39 68t79 54t121 21q89 0 182 -60q43 -30 72 -30q67 0 67 90h228v-80q0 -36 -13 -69q-13 -34 -42 -67t-79 -54q-51 -21 -119 -21q-51 0 -104 17q-52 17 -83 39q-46 31 -69 31q-66 0 -66 -88h-225v80z" />
    <glyph glyph-name="uni2000" unicode="&#x2000;" horiz-adv-x="934" 
 />
    <glyph glyph-name="uni2001" unicode="&#x2001;" horiz-adv-x="1868" 
 />
    <glyph glyph-name="uni2002" unicode="&#x2002;" horiz-adv-x="934" 
 />
    <glyph glyph-name="uni2003" unicode="&#x2003;" horiz-adv-x="1868" 
 />
    <glyph glyph-name="uni2004" unicode="&#x2004;" horiz-adv-x="622" 
 />
    <glyph glyph-name="uni2005" unicode="&#x2005;" horiz-adv-x="467" 
 />
    <glyph glyph-name="uni2006" unicode="&#x2006;" horiz-adv-x="311" 
 />
    <glyph glyph-name="uni2007" unicode="&#x2007;" horiz-adv-x="311" 
 />
    <glyph glyph-name="uni2008" unicode="&#x2008;" horiz-adv-x="233" 
 />
    <glyph glyph-name="uni2009" unicode="&#x2009;" horiz-adv-x="373" 
 />
    <glyph glyph-name="uni200A" unicode="&#x200a;" horiz-adv-x="103" 
 />
    <glyph glyph-name="uni2010" unicode="&#x2010;" horiz-adv-x="878" 
d="M49 676h776v-305h-776v305z" />
    <glyph glyph-name="uni2011" unicode="&#x2011;" horiz-adv-x="878" 
d="M49 676h776v-305h-776v305z" />
    <glyph glyph-name="figuredash" unicode="&#x2012;" horiz-adv-x="878" 
d="M49 676h776v-305h-776v305z" />
    <glyph glyph-name="endash" unicode="&#x2013;" horiz-adv-x="1202" 
d="M127 676h954v-305h-954v305z" />
    <glyph glyph-name="emdash" unicode="&#x2014;" horiz-adv-x="1800" 
d="M166 676h1472v-305h-1472v305z" />
    <glyph glyph-name="quoteleft" unicode="&#x2018;" horiz-adv-x="540" 
d="M94 1057l195 385h155l-155 -385h155v-344h-350v344z" />
    <glyph glyph-name="quoteright" unicode="&#x2019;" horiz-adv-x="540" 
d="M250 1098h-156v344h350v-344l-194 -385h-156z" />
    <glyph glyph-name="quotesinglbase" unicode="&#x201a;" horiz-adv-x="540" 
d="M94 344h350v-344l-194 -385h-156l156 385h-156v344z" />
    <glyph glyph-name="quotedblleft" unicode="&#x201c;" horiz-adv-x="991" 
d="M86 1057l195 385h155l-155 -385h155v-344h-350v344zM555 1057l195 385h155l-155 -385h155v-344h-350v344z" />
    <glyph glyph-name="quotedblright" unicode="&#x201d;" horiz-adv-x="991" 
d="M242 1098h-156v344h350v-344l-194 -385h-156zM711 1098h-156v344h350v-344l-194 -385h-156z" />
    <glyph glyph-name="quotedblbase" unicode="&#x201e;" horiz-adv-x="991" 
d="M86 344h350v-344l-194 -385h-156l156 385h-156v344zM555 344h350v-344l-194 -385h-156l156 385h-156v344z" />
    <glyph glyph-name="bullet" unicode="&#x2022;" horiz-adv-x="1355" 
d="M127 518q0 147 73 271q73 123 200 196q126 72 276 72t278 -72t201 -196q74 -125 74 -271q0 -108 -44 -210q-43 -100 -117 -172q-73 -72 -176 -114q-102 -42 -214 -42t-214 42q-101 42 -175 114t-117 172q-43 99 -43 210h-2z" />
    <glyph glyph-name="ellipsis" unicode="&#x2026;" horiz-adv-x="2015" 
d="M86 369h369v-369h-369v369zM823 369h369v-369h-369v369zM1561 369h368v-369h-368v369z" />
    <glyph glyph-name="uni202F" unicode="&#x202f;" horiz-adv-x="373" 
 />
    <glyph glyph-name="guilsinglleft" unicode="&#x2039;" horiz-adv-x="802" 
d="M465 1036h297l-428 -520l430 -516h-299l-422 516z" />
    <glyph glyph-name="guilsinglright" unicode="&#x203a;" horiz-adv-x="802" 
d="M344 1036l420 -520l-420 -516h-299l430 516l-432 520h301z" />
    <glyph glyph-name="uni205F" unicode="&#x205f;" horiz-adv-x="467" 
 />
    <glyph glyph-name="Euro" unicode="&#x20ac;" horiz-adv-x="1282" 
d="M143 682h76v76h-135l59 221h101q51 226 199 353q149 128 390 128q182 0 344 -90l-90 -348q-48 67 -115 111q-68 45 -138 45q-170 0 -230 -199h471l-51 -221h-448v-76h423l-57 -221h-338q58 -199 230 -199q142 0 339 191v-367q-51 -44 -139 -75q-87 -31 -199 -31
q-239 0 -387 128q-147 128 -200 353h-160z" />
    <glyph glyph-name="trademark" unicode="&#x2122;" horiz-adv-x="1464" 
d="M61 1440h529v-140h-176v-581h-172v581h-181v140zM653 1440h211l164 -504l162 504h213v-721h-174v385l-125 -385h-152l-125 385v-385h-174v721z" />
    <glyph glyph-name="uni25FC" unicode="&#x25fc;" horiz-adv-x="1034" 
d="M0 1034h1034v-1034h-1034v1034z" />
    <glyph glyph-name="uniFB01" unicode="&#xfb01;" horiz-adv-x="1349" 
d="M52 1036h164v105q0 301 324 301h202v-271h-151q-26 0 -36 -13t-10 -48v-74h651v-1036h-330v807h-321v-807h-330v807h-164zM867 1442h330v-324h-330v324z" />
    <glyph glyph-name="uniFB02" unicode="&#xfb02;" horiz-adv-x="1349" 
d="M52 1036h164v105q0 301 324 301h657v-1442h-330v1171h-276q-26 0 -36 -13t-10 -48v-74h153v-229h-153v-807h-330v807h-164z" />
    <glyph glyph-name="glyph1" horiz-adv-x="0" 
 />
    <glyph glyph-name="glyph2" horiz-adv-x="682" 
 />
    </font>
</defs>
</svg>
